<?xml version="1.0" standalone="no"?>
<svg viewBox="0 0 200 200" xmlns="http://www.w3.org/2000/svg">
  <path fill="#F2F4F8" d="M48.1,-74.4C62.9,-65.3,76,-53,82.3,-37.9C88.7,-22.9,88.4,-5.1,84.8,11.4C81.2,28,74.4,43.3,64.1,55.9C53.7,68.5,39.8,78.5,24.1,83.9C8.4,89.3,-9.1,90.1,-25.9,86.1C-42.6,82.2,-58.5,73.3,-68.8,60.3C-79,47.2,-83.5,29.9,-84.8,13C-86,-4,-83.9,-20.7,-77.6,-35.9C-71.4,-51.2,-61.1,-65.1,-47.5,-74.8C-33.8,-84.5,-16.9,-90,-0.1,-89.7C16.6,-89.5,33.2,-83.5,48.1,-74.4Z" transform="translate(100 100)" />
</svg>
